<svg width="25" height="24" viewBox="0 0 25 24" fill="none" xmlns="http://www.w3.org/2000/svg">
<path fill-rule="evenodd" clip-rule="evenodd" d="M11.2687 8.35688C11.037 8.21786 10.7484 8.21422 10.5133 8.34735C10.2782 8.48048 10.1328 8.7298 10.1328 9V15C10.1328 15.2702 10.2782 15.5195 10.5133 15.6526C10.7484 15.7858 11.037 15.7821 11.2687 15.6431L16.2687 12.6431C16.4946 12.5076 16.6328 12.2634 16.6328 12C16.6328 11.7366 16.4946 11.4924 16.2687 11.3569L11.2687 8.35688ZM14.4251 12L11.6328 13.6754V10.3246L14.4251 12Z" fill="white"/>
<path fill-rule="evenodd" clip-rule="evenodd" d="M17.9135 4.64131C14.5648 4.37933 11.2008 4.37933 7.85219 4.64131L5.61149 4.81661C4.24893 4.92321 3.13424 5.94442 2.909 7.29246C2.38824 10.4092 2.38824 13.5908 2.909 16.7076C3.13424 18.0556 4.24893 19.0768 5.61149 19.1834L7.85219 19.3587C11.2008 19.6207 14.5648 19.6207 17.9135 19.3587L20.1542 19.1834C21.5167 19.0768 22.6314 18.0556 22.8567 16.7076C23.3774 13.5908 23.3774 10.4092 22.8567 7.29246C22.6314 5.94442 21.5167 4.92321 20.1542 4.81661L17.9135 4.64131ZM7.96919 6.13674C11.24 5.88085 14.5257 5.88085 17.7965 6.13674L20.0372 6.31204C20.7128 6.3649 21.2655 6.87125 21.3772 7.53966C21.8706 10.4927 21.8706 13.5073 21.3772 16.4604C21.2655 17.1288 20.7128 17.6351 20.0372 17.688L17.7965 17.8633C14.5257 18.1192 11.2399 18.1192 7.96919 17.8633L5.72849 17.688C5.05288 17.6351 4.50017 17.1288 4.38849 16.4604C3.89508 13.5073 3.89508 10.4927 4.38849 7.53966C4.50017 6.87125 5.05288 6.3649 5.72849 6.31204L7.96919 6.13674Z" fill="white"/>
</svg>
