<svg width="25" height="24" viewBox="0 0 25 24" fill="none" xmlns="http://www.w3.org/2000/svg">
<path fill-rule="evenodd" clip-rule="evenodd" d="M6.67041 14.0196C6.71418 14.0344 6.75837 14.0448 6.80251 14.0512C6.85065 14.1644 6.91284 14.3107 6.98539 14.4818C7.16248 14.8994 7.40106 15.4643 7.64734 16.0535C8.14959 17.2552 8.6562 18.4939 8.76809 18.8485C8.9066 19.2868 9.053 19.5848 9.21283 19.7883C9.29549 19.8935 9.39106 19.9853 9.5029 20.0549C9.5592 20.0899 9.61868 20.1186 9.68076 20.14C9.68349 20.141 9.68622 20.1419 9.68895 20.1428C10.009 20.2636 10.3007 20.2133 10.4834 20.1518C10.5811 20.1188 10.6602 20.0791 10.7163 20.0469C10.7449 20.0304 10.769 20.0151 10.7883 20.0021L10.7928 19.9991L13.619 18.2366L16.8835 20.7394C16.9317 20.7763 16.9842 20.8073 17.0399 20.8316C17.4321 21.0027 17.8118 21.0624 18.1691 21.0136C18.5257 20.9649 18.8089 20.8151 19.0197 20.6464C19.2261 20.4813 19.366 20.2963 19.4532 20.1589C19.4977 20.0887 19.5311 20.0266 19.5546 19.9791C19.5665 19.9552 19.576 19.9346 19.5833 19.9181L19.5928 19.8963L19.5963 19.8877L19.5978 19.8841L19.5985 19.8824L19.5991 19.8808C19.6163 19.8379 19.6294 19.7935 19.6384 19.7482L22.6187 4.72274C22.6282 4.67469 22.633 4.62581 22.633 4.57682C22.633 4.13681 22.4672 3.71841 22.0774 3.46452C21.7442 3.24752 21.373 3.23818 21.1384 3.25598C20.8854 3.27519 20.6517 3.33766 20.4948 3.38757C20.4132 3.41355 20.3448 3.43861 20.2955 3.45773C20.2707 3.46734 20.2503 3.47559 20.2352 3.48188L20.2238 3.48666L3.51013 10.0432L3.50797 10.044C3.49732 10.0479 3.48364 10.053 3.46739 10.0593C3.43503 10.0719 3.39166 10.0896 3.34101 10.1126C3.24223 10.1574 3.10365 10.2273 2.96144 10.3247C2.73425 10.4803 2.21176 10.9064 2.29974 11.6097C2.36993 12.1708 2.75431 12.5154 2.9885 12.6811C3.11709 12.7721 3.23926 12.8371 3.32823 12.8795C3.3695 12.8991 3.4552 12.9339 3.49238 12.9491L3.50177 12.9529L6.67041 14.0196ZM20.8088 4.86786L20.8064 4.86888C20.7981 4.8725 20.7897 4.87596 20.7813 4.87928L4.04728 11.4438C4.03854 11.4472 4.02974 11.4505 4.02088 11.4536L4.01157 11.4571C4.00086 11.4613 3.98284 11.4686 3.96022 11.4788C3.94739 11.4846 3.934 11.491 3.92035 11.4978C3.93911 11.5084 3.95705 11.5175 3.973 11.5251C3.98831 11.5324 3.99999 11.5374 4.00638 11.54L7.149 12.598C7.20652 12.6174 7.26014 12.643 7.30936 12.674L17.6861 6.59948L17.6958 6.59374C17.7034 6.58927 17.7133 6.58353 17.7252 6.5768C17.7488 6.56345 17.7813 6.54568 17.8199 6.52603C17.8919 6.48938 18.0071 6.43497 18.1369 6.39485C18.2273 6.36692 18.4938 6.28823 18.7819 6.38064C18.9597 6.43767 19.1438 6.56028 19.2635 6.76798C19.323 6.87117 19.3547 6.97483 19.37 7.06972C19.4108 7.2192 19.4044 7.36681 19.3725 7.49424C19.3037 7.76875 19.1108 7.98287 18.9353 8.14665C18.785 8.28706 16.8396 10.1629 14.9205 12.0147C13.9634 12.9381 13.0161 13.8525 12.3081 14.5359L11.843 14.9849L17.715 19.4867C17.8496 19.5349 17.9292 19.5325 17.9661 19.5274C18.01 19.5214 18.0459 19.5045 18.0826 19.4752C18.1236 19.4424 18.1595 19.398 18.1863 19.3557L18.1874 19.354L21.0779 4.78102C21.035 4.79133 20.9916 4.80361 20.9498 4.81691C20.9024 4.83198 20.8634 4.84634 20.8375 4.85637C20.8247 4.86134 20.8155 4.86511 20.8105 4.86719L20.8088 4.86786ZM12.3475 17.2618L11.176 16.3636L10.8921 18.1693L12.3475 17.2618ZM10.1013 14.5814L11.2663 13.4567C11.9744 12.7732 12.9218 11.8588 13.8789 10.9352L14.8514 9.997L8.3314 13.8138L8.36638 13.8963C8.54409 14.3154 8.78374 14.8827 9.03132 15.4751C9.21645 15.918 9.41004 16.3844 9.58637 16.8162L9.86941 15.0158C9.8967 14.8422 9.98149 14.692 10.1013 14.5814Z" fill="white"/>
</svg>
